PathFileType	4	(X/Y/Z)	 s03c0302.trc
DataRate	CameraRate	NumFrames	NumMarkers	Units	OrigDataRate	OrigDataStartFrame	OrigNumFrames
200	200	5	52	mm	200	1	2000
Frame#	Time	racr			lacr			c7			jug			rlel			rdr			llel			ldr			s2			lic			ric			lasi			rasi			rpsi			lpsi			rgt			lgt			rth1			rth2			rth3			rth4			rlfc			rmfc			rsh1			rsh2			rsh3			rsh4			rlmal			rmmal			rcal			rtoe			rmt5			rmt1			lth1			lth2			lth4			lth3			llfc			lmfc			lsh1			lsh2			lsh3			lsh4			llmal			lmmal			lcal			ltoe			lmt1			lmt5			SBIKE			LBIKE			RBIKE			
		X1	Y1	Z1	X2	Y2	Z2	X3	Y3	Z3	X4	Y4	Z4	X5	Y5	Z5	X6	Y6	Z6	X7	Y7	Z7	X8	Y8	Z8	X9	Y9	Z9	X10	Y10	Z10	X11	Y11	Z11	X12	Y12	Z12	X13	Y13	Z13	X14	Y14	Z14	X15	Y15	Z15	X16	Y16	Z16	X17	Y17	Z17	X18	Y18	Z18	X19	Y19	Z19	X20	Y20	Z20	X21	Y21	Z21	X22	Y22	Z22	X23	Y23	Z23	X24	Y24	Z24	X25	Y25	Z25	X26	Y26	Z26	X27	Y27	Z27	X28	Y28	Z28	X29	Y29	Z29	X30	Y30	Z30	X31	Y31	Z31	X32	Y32	Z32	X33	Y33	Z33	X34	Y34	Z34	X35	Y35	Z35	X36	Y36	Z36	X37	Y37	Z37	X38	Y38	Z38	X39	Y39	Z39	X40	Y40	Z40	X41	Y41	Z41	X42	Y42	Z42	X43	Y43	Z43	X44	Y44	Z44	X45	Y45	Z45	X46	Y46	Z46	X47	Y47	Z47	X48	Y48	Z48	X49	Y49	Z49	X50	Y50	Z50	X51	Y51	Z51	X52	Y52	Z52	
1	0.0050	500.407530	1412.773874	-67.037150	497.822996	1426.400143	-400.689829	428.234530	1509.481876	-232.955582	471.739509	1342.327640	-226.647571	539.997007	1145.264952	23.257528	749.321926	947.135718	-25.887126	555.851049	1160.321582	-466.262362	761.140690	938.507466	-416.641099	-77.836114	1210.971430	-239.603505	112.921763	1210.911015	-414.352554	96.710186	1237.128625	-50.666089	125.245154	1135.727102	-380.919401	107.756924	1172.368614	-92.974885	-47.603943	1259.747674	-195.724741	-39.417557	1255.576434	-278.755359	31.982623	1158.989147	-32.071790	36.455752	1101.892264	-433.633815	157.684740	1073.032815	-16.829638	246.646687	1071.704980	-16.320222	322.655467	1029.156702	-18.821633	257.245838	1104.088006	-30.649311	439.827803	966.456589	-37.665963	444.712822	952.075355	-166.587173	361.837271	821.053697	-21.349870	335.426197	737.921177	-38.596897	268.263947	679.556672	-43.026840	359.198975	725.414208	-65.767025	191.762696	571.148894	-67.066788	216.687070	583.550684	-156.213495	121.352514	527.617190	-109.280366	429.905907	510.438911	-110.280954	310.668658	498.539501	-40.292975	336.288426	513.146922	-155.083003	95.125034	950.165197	-449.811714	149.921188	882.058459	-451.866275	183.465096	897.908830	-448.698166	164.958702	795.695215	-438.544022	235.213974	685.883491	-418.029370	235.483169	676.362299	-296.426038	155.687426	531.898340	-444.480466	146.514440	448.767909	-426.694340	93.075914	374.948549	-422.058882	174.686708	441.030936	-401.110295	39.901732	257.090073	-399.682237	71.696446	268.996208	-309.016017	-28.034704	209.516206	-352.130150	281.329147	198.082255	-356.041227	189.181335	196.998007	-312.155685	160.739146	176.777193	-427.155980	-214.786550	945.918509	-230.481804	-5.774927	83.365404	-434.428307	-11.402395	80.985140	-34.479190	
2	0.0100	500.468600	1412.913491	-67.064853	497.824968	1426.351656	-400.672570	428.263449	1509.433238	-232.892097	471.720522	1342.281872	-226.591090	539.978235	1145.253728	23.291770	749.314053	947.144288	-25.876241	556.816635	1159.434850	-464.280631	761.140711	938.499209	-416.647306	-77.806503	1210.946495	-239.633939	112.883253	1210.900753	-414.313409	96.701954	1237.118573	-50.668792	125.230501	1135.745435	-380.948814	107.754397	1172.384518	-92.972505	-47.587123	1259.750462	-195.733915	-39.387630	1255.568014	-278.768190	31.981322	1158.978721	-32.081449	36.441773	1101.888640	-433.632443	157.685389	1073.008467	-16.814810	246.644658	1071.706628	-16.305760	322.634458	1029.155208	-18.810052	257.242781	1104.113455	-30.615628	439.830306	966.461839	-37.633058	444.744284	952.022472	-166.969766	361.812140	821.077178	-21.337599	335.407404	737.932711	-38.591787	268.230334	679.593442	-43.003384	359.195751	725.450707	-65.772099	191.734728	571.176609	-67.047234	216.651009	583.588185	-156.206764	121.294295	527.697992	-109.264769	429.846395	510.467935	-110.291404	310.616322	498.555030	-40.301430	336.235853	513.164616	-155.081902	95.106272	950.150083	-449.810069	149.881267	882.033986	-451.867231	183.454646	897.903677	-448.681162	164.925644	795.702246	-438.522211	235.165612	685.866929	-418.020808	235.472179	676.325951	-296.400941	155.652041	531.942725	-444.529416	146.526133	448.740669	-426.691895	93.101130	374.911160	-422.056042	174.698050	441.031379	-401.127475	39.941592	257.037334	-399.661595	71.799020	268.928898	-309.010910	-27.973502	209.461445	-352.129391	281.303713	198.063320	-356.108286	189.246836	196.976334	-312.175403	160.793984	176.753651	-427.155945	-214.780210	945.927397	-230.479909	-5.777377	83.359227	-434.409367	-11.433765	81.046257	-34.493135	
3	0.0150	500.458084	1412.885653	-67.017941	497.837214	1426.337565	-400.639754	428.283017	1509.413857	-232.852153	471.703086	1342.259696	-226.611490	539.962066	1145.233303	23.348781	749.317767	947.150587	-25.840994	556.512466	1159.185805	-463.947176	761.148866	938.498524	-416.645907	-77.802819	1210.946497	-239.615379	112.870220	1210.879307	-414.275002	96.681281	1237.122940	-50.642332	125.173012	1135.703506	-380.851023	107.722608	1172.412232	-92.936815	-47.572019	1259.754247	-195.721023	-39.379934	1255.568368	-278.742371	31.984071	1158.975970	-32.075012	36.443086	1101.875356	-433.616398	157.667998	1073.018494	-16.782189	246.619571	1071.716735	-16.285121	322.631846	1029.151058	-18.785886	257.209271	1104.113260	-30.577019	439.833366	966.471111	-37.617066	444.695484	952.092733	-166.550950	361.791139	821.084255	-21.309502	335.375423	737.966937	-38.564070	268.195773	679.614875	-42.985337	359.154682	725.487287	-65.738172	191.693774	571.206935	-67.058395	216.598428	583.619350	-156.196525	121.249583	527.713523	-109.266172	429.779677	510.493598	-110.284481	310.547905	498.600128	-40.285459	336.182923	513.189149	-155.075315	95.096250	950.146501	-449.785513	149.856022	882.025936	-451.862796	183.442505	897.887805	-448.670173	164.893841	795.684943	-438.492863	235.132990	685.869454	-418.001186	235.439638	676.284988	-296.400433	155.657388	531.862536	-444.463024	146.527442	448.724823	-426.688080	93.110278	374.899804	-422.059004	174.703011	440.997091	-401.090095	39.975248	256.992352	-399.659956	71.837185	268.905025	-309.004461	-27.925956	209.409450	-352.124396	281.350238	198.050856	-356.085391	189.298701	196.939936	-312.144218	160.840082	176.736648	-427.154750	-214.780747	945.927564	-230.479231	-5.778706	83.372750	-434.397913	-11.395602	81.006987	-34.480726	
4	0.0200	502.973210	1412.478918	-67.066447	498.179830	1425.770864	-398.702122	428.327810	1509.374294	-232.862377	469.173467	1342.174216	-227.768996	540.370647	1145.157679	23.841757	749.320402	947.146444	-25.830768	556.773175	1159.412855	-464.355685	761.127473	938.514075	-416.644335	-78.380868	1210.505373	-239.593655	112.215974	1211.287594	-415.235619	97.003319	1237.092860	-50.594192	122.864703	1133.500736	-376.269302	107.725314	1172.397238	-92.939431	-47.564614	1259.749181	-195.723443	-39.366510	1255.563866	-278.743616	31.954739	1158.979955	-32.055226	36.694552	1102.226575	-433.979029	157.652290	1073.024297	-16.754065	246.611632	1071.723994	-16.266638	321.936385	1029.420698	-18.341301	256.430876	1104.520935	-31.539177	439.700099	966.324395	-37.414285	445.248810	950.040359	-162.068177	361.733587	821.064590	-21.226540	335.359418	737.991509	-38.528161	268.158757	679.635474	-42.965875	360.068799	726.205449	-65.636672	191.580711	571.260064	-66.952272	216.607957	583.704125	-156.157421	121.198453	527.757213	-109.254166	429.719853	510.515697	-110.267021	310.504520	498.621932	-40.270107	336.127829	513.217274	-155.072144	95.075916	950.132534	-449.771155	149.849169	882.008064	-451.843620	183.366749	898.058420	-449.195277	164.874151	795.677689	-438.472055	236.424296	685.212187	-416.505559	235.402339	676.279893	-296.362117	156.276974	531.072742	-443.065807	147.167794	447.624031	-424.865464	93.134207	374.858485	-422.044390	175.385304	440.024434	-399.308769	39.438104	258.051841	-401.368469	71.899656	268.859261	-309.017109	-27.878360	209.359100	-352.125221	281.388914	198.036095	-356.096225	188.827400	193.549461	-307.629876	161.551033	175.024838	-424.923019	-214.821552	945.949917	-230.800856	-5.780323	83.361811	-434.396926	-11.431983	81.048488	-34.490363	
5	0.0250	502.448150	1412.494610	-68.195280	497.940078	1426.057519	-399.777889	428.344442	1509.309782	-232.924804	469.089597	1342.601013	-228.701757	539.615714	1145.466028	23.055500	749.463746	947.352220	-25.953048	556.302474	1159.993474	-465.505481	760.925547	938.821694	-416.820917	-78.261783	1210.550754	-239.588669	113.233054	1212.056801	-416.868703	96.932732	1237.141452	-50.751211	123.818950	1134.562090	-377.848569	107.701732	1172.466748	-92.914561	-47.544562	1259.839455	-195.789196	-39.330868	1255.638276	-278.711051	31.975010	1159.058025	-32.028715	36.701597	1102.243989	-433.940718	157.704708	1073.068708	-16.737066	246.673112	1071.749779	-16.253648	322.009775	1029.398134	-18.386887	256.498723	1104.535470	-31.569776	439.455741	966.624592	-38.493221	444.966339	950.742637	-163.202276	361.792036	821.060785	-21.219526	334.600835	738.309703	-39.308185	268.179713	679.638994	-42.937686	359.571445	726.504394	-66.360025	191.588431	571.251432	-66.932008	216.716625	583.605106	-156.339727	121.060229	527.805322	-109.127905	429.729925	510.555150	-110.288047	310.541237	498.643234	-40.243473	336.132634	513.221780	-155.052805	95.101471	950.022147	-449.828017	149.247223	882.645825	-452.919349	183.401688	897.947038	-449.305606	164.880711	795.661127	-438.504027	235.717450	685.538541	-417.636094	235.153050	676.527506	-296.418205	155.677710	531.834974	-444.584299	146.510866	448.562887	-426.600212	93.243911	374.900216	-421.945559	175.195242	441.900764	-402.567437	39.373267	257.966408	-401.297189	71.621358	268.788063	-309.823523	-27.766765	209.350171	-352.263632	281.162683	198.216995	-356.985173	189.054783	195.089550	-309.541310	160.899696	176.610957	-427.168655	-214.783008	945.903600	-230.957128	-6.073547	84.303125	-434.981613	-11.514302	81.170027	-34.630124	
